<svg width="25" height="25" viewBox="0 0 25 25" fill="none" xmlns="http://www.w3.org/2000/svg">
<path d="M14.25 3.16696V6.96919C14.2125 7.29496 14.2471 7.62501 14.3512 7.93594C14.4362 8.11313 14.5792 8.25597 14.7564 8.34097C15.0673 8.4452 15.3972 8.47987 15.723 8.44235H19.5253M8.72597 14.887V17.649M16.0913 13.0457V17.649M12.4086 10.744V17.649M19.7739 10.2745V16.9124C19.8852 17.8927 19.7815 18.8857 19.4702 19.8218C19.2127 20.3463 18.7884 20.7703 18.264 21.0277C17.3279 21.3392 16.335 21.443 15.3547 21.3316H9.46255C8.48222 21.443 7.48938 21.3392 6.55322 21.0277C6.0288 20.7703 5.60457 20.3463 5.34709 19.8218C5.03571 18.8857 4.93208 17.8927 5.04332 16.9124V7.3376C4.93208 6.35727 5.03571 5.36434 5.34709 4.42815C5.60457 3.90374 6.0288 3.47973 6.55322 3.22226C7.48938 2.91076 8.48222 2.80701 9.46255 2.91837H12.4178C12.8642 2.89429 13.3118 2.91906 13.7528 2.99209C14.0312 3.06404 14.2978 3.17554 14.5445 3.3234C14.9119 3.58189 15.2487 3.88148 15.5481 4.21642L18.4758 7.14429C18.8106 7.44379 19.1103 7.78033 19.3689 8.14767C19.5166 8.3944 19.6282 8.66114 19.7003 8.93954C19.7733 9.38053 19.7979 9.82812 19.7739 10.2745Z" stroke="#86D293" stroke-width="1.5" stroke-linecap="round" stroke-linejoin="round"/>
</svg>
