<svg width="21" height="21" viewBox="0 0 21 21" fill="none" xmlns="http://www.w3.org/2000/svg">
<path d="M7.0467 7.04694L13.0467 13.0469M13.0467 7.04694L7.0467 13.0469M5.84669 19.0469H14.2467C15.3122 19.1676 16.3911 19.055 17.4087 18.717C17.9757 18.4334 18.4356 17.9737 18.7197 17.4069C19.055 16.3894 19.1666 15.3115 19.0467 14.2469V5.84699C19.1666 4.7824 19.055 3.70444 18.7197 2.68696C18.4356 2.12016 17.9757 1.66051 17.4087 1.3769C16.3911 1.03886 15.3122 0.926303 14.2467 1.04694H5.84669C4.78123 0.926303 3.70229 1.03886 2.6847 1.3769C2.11768 1.66051 1.65777 2.12016 1.37373 2.68696C1.0384 3.70444 0.926825 4.7824 1.0467 5.84699V14.2469C0.926825 15.3115 1.0384 16.3894 1.37373 17.4069C1.65777 17.9737 2.11768 18.4334 2.6847 18.717C3.70229 19.055 4.78123 19.1676 5.84669 19.0469Z" stroke="#344370" stroke-width="2" stroke-linecap="round" stroke-linejoin="round"/>
</svg>
