<svg width="18" height="21" viewBox="0 0 18 21" fill="none" xmlns="http://www.w3.org/2000/svg">
<path d="M0.76001 12.12C0.76001 10.38 2.17001 8.95996 3.92001 8.95996H14.09C15.83 8.95996 17.25 10.37 17.25 12.12V16.11C17.25 17.85 15.84 19.27 14.09 19.27H3.92001C2.17001 19.27 0.76001 17.86 0.76001 16.11V12.12Z" stroke="#C8A134" stroke-width="1.5" stroke-linecap="round" stroke-linejoin="round"/>
<path d="M3.8501 5.91953C3.8501 3.07953 6.16009 0.769531 9.00009 0.769531C11.8401 0.769531 14.1501 3.07953 14.1501 5.91953V8.96954H3.8501V5.91953Z" stroke="#C8A134" stroke-width="1.5" stroke-linecap="round" stroke-linejoin="round"/>
<path d="M9 16.1796V13.5996" stroke="#C8A134" stroke-width="1.5" stroke-linecap="round" stroke-linejoin="round"/>
<path d="M8.99997 14.1196C8.43112 14.1196 7.96997 13.6584 7.96997 13.0896C7.96997 12.5207 8.43112 12.0596 8.99997 12.0596C9.56882 12.0596 10.03 12.5207 10.03 13.0896C10.03 13.6584 9.56882 14.1196 8.99997 14.1196Z" fill="#C8A134" stroke="#C8A134" stroke-width="1.5" stroke-linecap="round" stroke-linejoin="round"/>
</svg>
