<svg width="25" height="25" viewBox="0 0 25 25" fill="none" xmlns="http://www.w3.org/2000/svg">
<path d="M14.25 3.29196V7.09419C14.2125 7.41996 14.2471 7.75001 14.3512 8.06094C14.4362 8.23813 14.5792 8.38097 14.7564 8.46597C15.0673 8.5702 15.3972 8.60487 15.723 8.56735H19.5253M14.25 16.8533H8.72597M16.0913 13.1707H8.72597M19.7739 10.3995V17.0374C19.8852 18.0177 19.7815 19.0107 19.4702 19.9468C19.2127 20.4713 18.7884 20.8953 18.264 21.1527C17.3279 21.4642 16.335 21.568 15.3547 21.4566H9.46255C8.48222 21.568 7.48938 21.4642 6.55322 21.1527C6.0288 20.8953 5.60457 20.4713 5.34709 19.9468C5.03571 19.0107 4.93208 18.0177 5.04332 17.0374V7.4626C4.93208 6.48227 5.03571 5.48934 5.34709 4.55315C5.60457 4.02874 6.0288 3.60473 6.55322 3.34726C7.48938 3.03576 8.48222 2.93201 9.46255 3.04337H12.4178C12.8642 3.01929 13.3118 3.04406 13.7528 3.11709C14.0312 3.18904 14.2978 3.30054 14.5445 3.4484C14.9119 3.70689 15.2487 4.00648 15.5481 4.34142L18.4758 7.26929C18.8106 7.56879 19.1103 7.90533 19.3689 8.27267C19.5166 8.5194 19.6282 8.78614 19.7003 9.06454C19.7733 9.50553 19.7979 9.95312 19.7739 10.3995Z" stroke="#86D293" stroke-width="1.5" stroke-linecap="round" stroke-linejoin="round"/>
</svg>
